# xmcd CD database file
#
# Track frame offsets:
#	150
#	12039
#	33485
#	45336
#	73219
#	81812
#	97740
#	123073
#	135562
#	158394
#	175662
#
# Disc length: 2601 seconds
#
# Revision: 1
# Processed by: cddbd v1.5.2PL0 Copyright (c) Steve Scherf et al.
# Submitted via: CDex 1.51
#
DISCID=730a270b
DTITLE=Phil Minissale - Home to Me
DYEAR=2008
DGENRE=Blues
TTITLE0=Move Across the River
TTITLE1=Shades of Blue
TTITLE2=Marsh Creek Tickle
TTITLE3=Village Dave
TTITLE4=Just Getting Started
TTITLE5=Home to Me
TTITLE6=Not Trying to Bring You Down
TTITLE7=Pickin Flowers
TTITLE8=Love on the Line
TTITLE9=I Can Ride
TTITLE10=Will She Ever Change
EXTD=YEAR: 2008
EXTT0=
EXTT1=
EXTT2=
EXTT3=
EXTT4=
EXTT5=
EXTT6=
EXTT7=
EXTT8=
EXTT9=
EXTT10=
PLAYORDER=
